<svg xmlns="http://www.w3.org/2000/svg" width="612" height="612"><path d="M424.032 443.7l19.668-19.668L325.667 306 443.7 187.967 424.032 168.3 306 286.333 187.967 168.3 168.3 187.967 286.333 306 168.3 424.032l19.667 19.668L306 325.667z"/><path d="M612 306C612 137.004 474.995 0 306 0 137.004 0 0 137.004 0 306c0 168.995 137.004 306 306 306 168.995 0 306-137.005 306-306zm-584.182 0C27.818 152.36 152.36 27.818 306 27.818S584.182 152.36 584.182 306 459.64 584.182 306 584.182 27.818 459.64 27.818 306z"/></svg>